<svg class="" version="1.1" id="svg2" width="636.85333" height="246.21333" viewBox="0 0 636.85333 246.21333" sodipodi:docname="DDRE_GLOBAL_LOGO_SLATE_BLUE.eps" xmlns:inkscape="http://www.inkscape.org/namespaces/inkscape" xmlns:sodipodi="http://sodipodi.sourceforge.net/DTD/sodipodi-0.dtd" xmlns="http://www.w3.org/2000/svg" xmlns:svg="http://www.w3.org/2000/svg"><defs id="defs6"></defs><sodipodi:namedview id="namedview4" pagecolor="#ffffff" bordercolor="#000000" borderopacity="0.25" inkscape:showpageshadow="2" inkscape:pageopacity="0.0" inkscape:pagecheckerboard="0" inkscape:deskcolor="#d1d1d1"></sodipodi:namedview><g id="g8" inkscape:groupmode="layer" inkscape:label="ink_ext_XXXXXX" transform="matrix(1.3333333,0,0,-1.3333333,0,246.21333)"><g id="g10" transform="scale(0.1)"><path d="m 2015.42,160.578 c 0,32.141 5.51,60.422 16.57,84.82 11.03,24.391 27.27,43.403 48.64,57.032 21.39,13.64 47.3,20.449 77.72,20.449 35.87,0 63.79,-8.379 83.73,-25.18 19.95,-16.777 32.79,-39.39 38.53,-67.801 L 2224.23,223 c -4.04,15.781 -10.92,28.281 -20.67,37.461 -9.78,9.187 -24.99,13.777 -45.66,13.777 -19.5,0 -35.38,-4.879 -47.55,-14.629 -12.2,-9.769 -21.17,-23.039 -26.91,-39.839 -5.77,-16.782 -8.61,-36.09 -8.61,-57.899 0,-35.301 7.25,-62.9218 21.73,-82.871 14.49,-19.9609 37.11,-29.9297 67.8,-29.9297 12.93,0 25.13,1.4297 36.61,4.3008 11.47,2.8672 21.81,7.3281 31,13.3594 v 58.9685 h -66.3 v 46.942 h 120.12 V 42.1914 C 2269.99,28.4102 2251.05,17.9297 2228.96,10.75 2206.84,3.58984 2184.75,0 2162.64,0 c -47.05,0 -83.38,14.1211 -108.92,42.3984 -25.55,28.2696 -38.3,67.6606 -38.3,118.1796" style="fill-opacity:1;fill-rule:nonzero;stroke:none;" id="path12" fill="#ffffff"></path><path d="m 2556.13,315.141 h 57.69 V 58.1211 h 149.84 L 2756.75,7.75 h -200.62 v 307.391" style="fill-opacity:1;fill-rule:nonzero;stroke:none;" id="path14" fill="#ffffff"></path><path d="m 3057.26,161.441 c 0,-34.742 7.16,-62.0621 21.51,-82.0113 14.34,-19.9609 35.87,-29.9297 64.59,-29.9297 28.11,0 49.42,9.9688 63.93,29.9297 14.49,19.9492 21.73,47.2693 21.73,82.0113 0,34.45 -7.24,61.7 -21.73,81.797 -14.51,20.09 -35.82,30.141 -63.93,30.141 -28.72,0 -50.25,-10.051 -64.59,-30.141 -14.35,-20.097 -21.51,-47.347 -21.51,-81.797 z m -59.42,-0.863 c 0,34.442 6.1,63.793 18.31,88.043 12.17,24.25 29.19,42.688 51,55.32 21.81,12.629 47.36,18.938 76.63,18.938 29.56,0 55.19,-6.238 76.86,-18.719 21.67,-12.488 38.44,-30.64 50.36,-54.461 11.92,-23.828 17.86,-52.808 17.86,-86.961 0,-34.449 -5.94,-63.7888 -17.86,-88.0388 C 3259.08,50.4414 3242.23,31.918 3220.41,19.1484 3198.6,6.37891 3172.78,0 3142.92,0 c -29.28,0 -54.82,6.23828 -76.63,18.7188 -21.81,12.4921 -38.67,30.6406 -50.59,54.4609 -11.92,23.832 -17.86,52.9493 -17.86,87.3983" style="fill-opacity:1;fill-rule:nonzero;stroke:none;" id="path16" fill="#ffffff"></path><path d="m 3733.61,98.5781 c 0,15.7809 -4.6,27.6919 -13.79,35.7419 -9.19,8.032 -24.4,12.051 -45.63,12.051 h -62.84 V 52.0898 h 60.69 c 23.82,0 40.03,4.0118 48.64,12.0508 8.61,8.0391 12.93,19.5078 12.93,34.4375 z m -21.95,162.9609 c -8.92,6.172 -24.13,9.25 -45.66,9.25 h -54.65 v -81.371 h 59.39 c 19.24,0 33.09,3.441 41.56,10.344 8.47,6.886 12.7,17.207 12.7,31 0,14.347 -4.46,24.597 -13.34,30.777 z m -154.58,53.602 h 114.96 c 27.55,0 49.23,-3.371 64.99,-10.11 15.8,-6.761 27,-16.011 33.6,-27.781 6.6,-11.77 9.89,-25.398 9.89,-40.898 0,-14.352 -3.21,-27.051 -9.67,-38.102 -6.46,-11.059 -17.16,-20.301 -32.09,-27.77 18.94,-7.46 32.15,-17.652 39.61,-30.57 7.47,-12.91 11.2,-27.121 11.2,-42.6209 0,-17.5078 -3.87,-33.0078 -11.62,-46.4883 -7.74,-13.5 -19.89,-24.0391 -36.38,-31.6524 C 3725.06,11.5508 3703.33,7.75 3676.33,7.75 h -119.25 v 307.391" style="fill-opacity:1;fill-rule:nonzero;stroke:none;" id="path18" fill="#ffffff"></path><path d="m 4163.7,261.75 -45.62,-132.16 h 91.67 z m -86.96,-254 h -58.14 l 113.68,307.391 h 65.85 L 4310.92,7.75 h -59.83 L 4224.4,82.2188 H 4103.01 L 4076.74,7.75" style="fill-opacity:1;fill-rule:nonzero;stroke:none;" id="path20" fill="#ffffff"></path><path d="m 4563.63,315.141 h 57.69 V 58.1211 h 149.84 L 4764.25,7.75 h -200.62 v 307.391" style="fill-opacity:1;fill-rule:nonzero;stroke:none;" id="path22" fill="#ffffff"></path><path d="M 1568.37,1612.3 V 976.336 h 204.27 c 217.6,0 359.69,146.524 359.69,349.314 v 2.94 c 0,202.79 -142.09,352.29 -359.69,352.29 h -204.27 z m -182.02,86.96 v 147.39 h 386.29 c 325.66,0 550.64,-223.49 550.64,-515.08 v -2.98 c 0,-291.56 -224.98,-518.031 -550.64,-518.031 h -386.29 v 888.701" style="fill-opacity:1;fill-rule:nonzero;stroke:none;" id="path24" fill="#ffffff"></path><path d="M 182.016,1612.3 V 976.336 h 204.273 c 217.602,0 359.691,146.524 359.691,349.314 v 2.94 c 0,202.79 -142.089,352.29 -359.691,352.29 H 182.016 Z M 0,1699.26 v 147.39 h 386.289 c 325.66,0 550.637,-223.49 550.637,-515.08 v -2.98 c 0,-291.56 -224.977,-518.031 -550.637,-518.031 L 0,810.559 v 888.701" style="fill-opacity:1;fill-rule:nonzero;stroke:none;" id="path26" fill="#ffffff"></path><path d="m 2957.6,1381.55 v 296.15 l 286.32,-0.03 c 94.79,-5.11 156.07,-63.18 156.07,-147.95 0,-83.92 -66.39,-144.84 -162.54,-148.17 z m 429.16,-136.83 c 157.17,75.74 223.2,264.57 147.46,421.75 -23.97,49.74 -60.37,90.68 -103.88,121.14 -51.99,36.36 -114.34,57.54 -180.27,57.64 l -470.7,0.58 V 812.012 h 178.23 v 432.558 h 240.9 l 246.72,-433.179 h 152.05 36.14 l -246.65,433.329" style="fill-opacity:1;fill-rule:nonzero;stroke:none;" id="path28" fill="#ffffff"></path><path d="m 4776.37,976.336 h -523.53 v 283.924 h 456.11 v 167.52 h -456.11 v 249.92 h 523.53 v 167.64 l -701.76,0.2 V 811.68 h 701.76 v 164.656" style="fill-opacity:1;fill-rule:nonzero;stroke:none;" id="path30" fill="#ffffff"></path></g></g></svg>